<?xml version="1.0" encoding="UTF-8" standalone="no"?>
<!-- Generator: Adobe Illustrator 16.2.1, SVG Export Plug-In . SVG Version: 6.00 Build 0)  -->

<svg
   xmlns:dc="http://purl.org/dc/elements/1.1/"
   xmlns:cc="http://creativecommons.org/ns#"
   xmlns:rdf="http://www.w3.org/1999/02/22-rdf-syntax-ns#"
   xmlns:svg="http://www.w3.org/2000/svg"
   xmlns="http://www.w3.org/2000/svg"
   xmlns:sodipodi="http://sodipodi.sourceforge.net/DTD/sodipodi-0.dtd"
   xmlns:inkscape="http://www.inkscape.org/namespaces/inkscape"
   version="1.1"
   id="Layer_1"
   x="0px"
   y="0px"
   width="512px"
   height="512px"
   viewBox="0 0 512 512"
   enable-background="new 0 0 512 512"
   xml:space="preserve"
   inkscape:version="0.48.2 r9819"
   sodipodi:docname="cube.svg"
   inkscape:export-filename="/Users/lvillani/Development/just-install/cube.png"
   inkscape:export-xdpi="70.309998"
   inkscape:export-ydpi="70.309998"><metadata
   id="metadata15"><rdf:RDF><cc:Work
       rdf:about=""><dc:format>image/svg+xml</dc:format><dc:type
         rdf:resource="http://purl.org/dc/dcmitype/StillImage" /><dc:title></dc:title></cc:Work></rdf:RDF></metadata><defs
   id="defs13">
	
	
	
</defs><sodipodi:namedview
   pagecolor="#ffffff"
   bordercolor="#666666"
   borderopacity="1"
   objecttolerance="10"
   gridtolerance="10"
   guidetolerance="10"
   inkscape:pageopacity="0"
   inkscape:pageshadow="2"
   inkscape:window-width="1920"
   inkscape:window-height="1032"
   id="namedview11"
   showgrid="false"
   showguides="true"
   inkscape:zoom="0.4609375"
   inkscape:cx="-128"
   inkscape:cy="256"
   inkscape:window-x="0"
   inkscape:window-y="0"
   inkscape:window-maximized="1"
   inkscape:current-layer="Layer_1" />
<g
   id="g3833"><path
     style="fill:#30505c;fill-opacity:1"
     d="m 467.301,168.084 c -1.805,0 -3.516,0.329 -5.07,0.962 l -2.281,1.15 -171.475,88.938 -3.888,1.996 c 0,0 -0.052,0.023 -0.052,0.047 -7.56,4.668 -12.535,12.506 -12.535,21.425 v 185.854 c 0,6.382 5.649,11.544 12.69,11.544 2.178,0 4.251,-0.513 6.065,-1.404 0.155,-0.095 0.363,-0.188 0.519,-0.282 l 174.731,-92.694 0.259,-0.141 c 8.241,-4.504 13.735,-12.742 13.735,-22.105 V 179.582 c 10e-4,-6.359 -5.7,-11.498 -12.698,-11.498 z"
     id="path5"
     inkscape:connector-curvature="0" /><path
     style="fill:#efc94c;fill-opacity:1"
     d="M 454.273,118.521 272.573,36.79 c 0,0 -10.659,-4.79 -16.577,-4.79 -5.918,0 -16.526,4.79 -16.526,4.79 L 57.614,118.521 c 0,0 -7.989,3.292 -7.989,9.479 0,6.562 8.3,11.5 8.3,11.5 l 182.582,96.371 2.902,1.479 c 3.784,1.687 8.077,2.649 12.587,2.649 4.561,0 8.915,-0.963 12.742,-2.696 l 2.539,-1.315 182.893,-96.536 c 0,0 7.508,-4.036 7.508,-11.453 0,-6.499 -7.405,-9.478 -7.405,-9.478 z"
     id="path7"
     inkscape:connector-curvature="0" /><path
     style="fill:#30505c;fill-opacity:1"
     d="m 227.466,261.178 -3.992,-2.043 -171.432,-88.938 -2.28,-1.15 c -1.495,-0.634 -3.258,-0.962 -5.071,-0.962 -6.997,0 -12.69,5.138 -12.69,11.497 v 183.792 c 0,9.388 5.485,17.602 13.727,22.105 l 0.208,0.141 174.739,92.694 0,0 c 1.918,1.08 4.199,1.687 6.636,1.687 6.989,0 12.69,-5.162 12.69,-11.544 V 282.603 C 240,273.684 235.024,265.846 227.466,261.178 z"
     id="path9"
     inkscape:connector-curvature="0" /></g>
</svg>